<svg id="BackStep" xmlns="http://www.w3.org/2000/svg" xmlns:xlink="http://www.w3.org/1999/xlink" width="25" height="25" viewBox="0 0 1000 1000" enable-background="new 0 0 50 50" xml:space="preserve">
<g><path d="M500,53.5c246.2,0,446.5,200.2,446.5,446.5S746.2,946.5,500,946.5S53.5,746.2,53.5,500S253.8,53.5,500,53.5
M500,10C229.4,10,10,229.4,10,500c0,270.7,219.4,490,490,490c270.7,0,490-219.3,490-490C990,229.4,770.7,10,500,10L500,10z" fill="#fff"/>
<path d="M428,769c-5.6,0-11.1-2.1-15.4-6.4c-8.5-8.6-8.5-22.3,0-30.8L644.5,500L412.6,268.1c-8.5-8.5-8.5-22.3,0-30.8c8.5-8.6,22.3-8.6,30.8,0l247.3,247.3c8.5,8.5,8.5,22.3,0,30.8L443.4,762.6C439.1,767,433.6,769,428,769z"
fill="#fff"/></g>
</svg>