<svg width="18" height="17" viewBox="0 0 18 17" fill="none" xmlns="http://www.w3.org/2000/svg" id="BlackList">
<path d="M16.8742 0H1.12582C0.78022 0 0.5 0.28022 0.5 0.625825V16.3835C0.5 16.7291 0.78022 17.0094 1.12582 17.0094H16.8835C17.2291 17.0094 17.5094 16.7291 17.5094 16.3835V0.625825C17.5 0.28022 17.2198 0 16.8742 0ZM16.2577 1.24231V15.7484H1.74231V1.24231H16.2577Z" fill="#56D68B"/>
<path d="M8.2811 4.82904H14.0069C14.3525 4.82904 14.6328 4.54882 14.6328 4.20322C14.6328 3.85761 14.3525 3.57739 14.0069 3.57739H8.2811C7.93549 3.57739 7.65527 3.85761 7.65527 4.20322C7.65527 4.37135 7.72066 4.53014 7.84209 4.64223C7.96352 4.76366 8.12231 4.82904 8.2811 4.82904Z" fill="#56D68B"/>
<path d="M8.2811 9.12567H14.0069C14.3525 9.12567 14.6328 8.84545 14.6328 8.49985C14.6328 8.15424 14.3525 7.87402 14.0069 7.87402H8.2811C7.93549 7.87402 7.65527 8.15424 7.65527 8.49985C7.65527 8.84545 7.94483 9.12567 8.2811 9.12567Z" fill="#56D68B"/>
<path d="M8.2811 13.4225H14.0069C14.3525 13.4225 14.6328 13.1423 14.6328 12.7967C14.6328 12.4511 14.3525 12.1709 14.0069 12.1709H8.2811C7.93549 12.1709 7.65527 12.4511 7.65527 12.7967C7.65527 12.9649 7.72066 13.1236 7.84209 13.2357C7.96352 13.3572 8.12231 13.4225 8.2811 13.4225Z" fill="#56D68B"/>
<path d="M3.82543 4.20321L3.54521 4.48343C3.30235 4.72628 3.30235 5.11859 3.54521 5.36145C3.66664 5.48288 3.81609 5.54826 3.98422 5.54826C4.15235 5.54826 4.31115 5.48288 4.42323 5.36145L4.70345 5.08123L4.98367 5.36145C5.1051 5.48288 5.25455 5.54826 5.42268 5.54826C5.59082 5.54826 5.74961 5.48288 5.8617 5.36145C5.98312 5.24002 6.04851 5.09057 6.04851 4.92244C6.04851 4.75431 5.98312 4.59552 5.8617 4.48343L5.58148 4.20321L5.8617 3.92299C5.98312 3.80156 6.04851 3.65211 6.04851 3.48398C6.04851 3.31585 5.98312 3.15706 5.8617 3.04497C5.74027 2.92354 5.59082 2.85815 5.42268 2.85815C5.25455 2.85815 5.09576 2.92354 4.98367 3.04497L4.70345 3.32519L4.42323 3.04497C4.30181 2.92354 4.15235 2.85815 3.98422 2.85815C3.81609 2.85815 3.6573 2.92354 3.54521 3.04497C3.42378 3.1664 3.3584 3.31585 3.3584 3.48398C3.3584 3.65211 3.42378 3.8109 3.54521 3.92299L3.82543 4.20321Z" fill="#56D68B"/>
<path d="M3.82543 8.49984L3.54521 8.78006C3.30235 9.02292 3.30235 9.41523 3.54521 9.65809C3.66664 9.77952 3.81609 9.8449 3.98422 9.8449C4.15235 9.8449 4.31115 9.77952 4.42323 9.65809L4.70345 9.37787L4.98367 9.65809C5.1051 9.77952 5.25455 9.8449 5.42268 9.8449C5.59082 9.8449 5.74961 9.77952 5.8617 9.65809C5.98312 9.53666 6.04851 9.38721 6.04851 9.21908C6.04851 9.05094 5.98312 8.89215 5.8617 8.78006L5.58148 8.49984L5.8617 8.21962C5.98312 8.09819 6.04851 7.94874 6.04851 7.78061C6.04851 7.61248 5.98312 7.45369 5.8617 7.3416C5.74027 7.22017 5.59082 7.15479 5.42268 7.15479C5.25455 7.15479 5.09576 7.22017 4.98367 7.3416L4.70345 7.62182L4.42323 7.3416C4.30181 7.22017 4.15235 7.15479 3.98422 7.15479C3.81609 7.15479 3.6573 7.22017 3.54521 7.3416C3.42378 7.46303 3.3584 7.61248 3.3584 7.78061C3.3584 7.94874 3.42378 8.10754 3.54521 8.21962L3.82543 8.49984Z" fill="#56D68B"/>
<path d="M3.82543 12.7967L3.54521 13.0769C3.30235 13.3198 3.30235 13.7121 3.54521 13.9549C3.66664 14.0764 3.81609 14.1418 3.98422 14.1418C4.15235 14.1418 4.31115 14.0764 4.42323 13.9549L4.70345 13.6747L4.98367 13.9549C5.1051 14.0764 5.25455 14.1418 5.42268 14.1418C5.59082 14.1418 5.74961 14.0764 5.8617 13.9549C5.98312 13.8335 6.04851 13.6841 6.04851 13.5159C6.04851 13.3478 5.98312 13.189 5.8617 13.0769L5.58148 12.7967L5.8617 12.5165C5.98312 12.3951 6.04851 12.2456 6.04851 12.0775C6.04851 11.9094 5.98312 11.7506 5.8617 11.6385C5.74027 11.517 5.59082 11.4517 5.42268 11.4517C5.25455 11.4517 5.09576 11.517 4.98367 11.6385L4.70345 11.9187L4.42323 11.6385C4.30181 11.517 4.15235 11.4517 3.98422 11.4517C3.81609 11.4517 3.6573 11.517 3.54521 11.6385C3.42378 11.7599 3.3584 11.9094 3.3584 12.0775C3.3584 12.2456 3.42378 12.4044 3.54521 12.5165L3.82543 12.7967Z" fill="#56D68B"/>
</svg>
