<svg width="18" height="18" id="Chat" viewBox="0 0 18 18" fill="none" xmlns="http://www.w3.org/2000/svg">
<g clip-path="url(#clip0)">
<path d="M16.472 10.778C16.3264 10.418 15.9166 10.2441 15.5566 10.3897C15.1965 10.5352 15.0226 10.945 15.1682 11.3051L15.9963 13.3535L13.5368 12.2693C13.3588 12.1908 13.1562 12.1896 12.9773 12.266C12.1367 12.6246 11.2363 12.8064 10.301 12.8064C6.53675 12.8064 4.00807 9.85909 4.00807 7.10633C4.00807 3.9633 6.83108 1.40625 10.301 1.40625C13.771 1.40625 16.594 3.9633 16.594 7.10633C16.594 7.35154 16.5711 7.64517 16.5314 7.91186C16.4741 8.29595 16.739 8.65373 17.1231 8.71103C17.5072 8.76848 17.865 8.50344 17.9222 8.11936C17.9725 7.78221 18.0002 7.42242 18.0002 7.10633C18.0002 5.19629 17.1914 3.4041 15.7227 2.05991C14.2714 0.731565 12.3459 0 10.301 0C8.25613 0 6.3307 0.731565 4.87935 2.05987C3.5669 3.26109 2.78193 4.82019 2.62967 6.50133C0.97884 7.59454 0.000267583 9.34634 0.000267583 11.2333C0.000267583 12.412 0.371622 13.5304 1.07851 14.4929L0.0515253 17.0333C-0.0557362 17.2986 0.00849413 17.6025 0.213982 17.8016C0.347892 17.9315 0.524341 18 0.703532 18C0.799262 18 0.895801 17.9805 0.986996 17.9402L3.94817 16.6349C4.69306 16.9122 5.48045 17.0525 6.29319 17.0525C6.31077 17.0525 6.32803 17.0512 6.34529 17.0499C7.52081 17.041 8.66363 16.7318 9.65342 16.1532C10.54 15.6348 11.2693 14.9228 11.7805 14.0819C12.2797 13.9922 12.7676 13.8568 13.2412 13.6758L17.0135 15.3387C17.1047 15.3789 17.2012 15.3984 17.2969 15.3984C17.4761 15.3984 17.6526 15.3299 17.7865 15.2001C17.992 15.0009 18.0562 14.6971 17.949 14.4318L16.472 10.778ZM6.29326 15.6445C6.28366 15.6445 6.27431 15.6456 6.26478 15.6459C5.54682 15.6423 4.85579 15.5012 4.21043 15.2258C4.03152 15.1494 3.82892 15.1507 3.65089 15.2292L2.00428 15.955L2.53545 14.641C2.63364 14.3981 2.58861 14.1208 2.41866 13.9214C1.75649 13.1445 1.40651 12.2151 1.40651 11.2333C1.40651 10.1097 1.87919 9.04502 2.7062 8.23776C2.96369 9.64137 3.69019 10.9841 4.78611 12.0388C6.14986 13.3513 7.95372 14.1117 9.90155 14.2032C8.98707 15.1034 7.67841 15.6445 6.29326 15.6445Z" fill="#33CD74"/>
<path d="M10.2666 7.83984C10.6549 7.83984 10.9697 7.52504 10.9697 7.13672C10.9697 6.74839 10.6549 6.43359 10.2666 6.43359C9.87828 6.43359 9.56348 6.74839 9.56348 7.13672C9.56348 7.52504 9.87828 7.83984 10.2666 7.83984Z" fill="#33CD74"/>
<path d="M13.0789 7.83984C13.4672 7.83984 13.782 7.52504 13.782 7.13672C13.782 6.74839 13.4672 6.43359 13.0789 6.43359C12.6905 6.43359 12.3757 6.74839 12.3757 7.13672C12.3757 7.52504 12.6905 7.83984 13.0789 7.83984Z" fill="#33CD74"/>
<path d="M7.4541 7.83984C7.84242 7.83984 8.15722 7.52504 8.15722 7.13672C8.15722 6.74839 7.84242 6.43359 7.4541 6.43359C7.06578 6.43359 6.75098 6.74839 6.75098 7.13672C6.75098 7.52504 7.06578 7.83984 7.4541 7.83984Z" fill="#33CD74"/>
</g>
<defs>
<clipPath id="clip0">
<rect width="18" height="18" fill="white"/>
</clipPath>
</defs>
</svg>
