<svg width="18" height="17" viewBox="0 0 18 17" fill="none" xmlns="http://www.w3.org/2000/svg">
<path d="M14.1388 1.0625H3.78748C1.70008 1.0625 0 2.768 0 4.86205V10.4393C0 11.2577 0.257069 12.0382 0.747214 12.6915C1.22365 13.3277 1.87832 13.7884 2.63581 14.0222L4.33933 15.7312C4.473 15.8653 4.64781 15.9375 4.83633 15.9375C5.02142 15.9375 5.20308 15.8619 5.33333 15.7312L6.87231 14.1873H14.1388C16.2262 14.1873 17.9263 12.4818 17.9263 10.3877V4.86205C17.9263 2.768 16.2262 1.0625 14.1388 1.0625ZM1.40531 4.86205C1.40531 3.5451 2.47472 2.47229 3.78748 2.47229H14.1388C15.4516 2.47229 16.521 3.5451 16.521 4.86205V10.3877C16.521 11.7047 15.4516 12.7775 14.1388 12.7775H6.58097C6.39588 12.7775 6.21422 12.8532 6.08397 12.9838L4.83633 14.2354L3.49957 12.8944C3.41045 12.805 3.29734 12.7397 3.17395 12.7087C2.13196 12.4474 1.40531 11.5156 1.40531 10.4393V4.86205Z" fill="#56D68B"/>
<path d="M5.69973 7.02869H12.2293C12.6166 7.02869 12.9319 6.71234 12.9319 6.32379C12.9319 5.93524 12.6166 5.6189 12.2293 5.6189H5.69973C5.31241 5.6189 4.99707 5.93524 4.99707 6.32379C4.99707 6.71234 5.31241 7.02869 5.69973 7.02869Z" fill="#56D68B"/>
<path d="M5.69973 9.64539H12.2293C12.6166 9.64539 12.9319 9.32904 12.9319 8.94049C12.9319 8.55194 12.6166 8.2356 12.2293 8.2356H5.69973C5.31241 8.2356 4.99707 8.55194 4.99707 8.94049C4.99707 9.32904 5.31241 9.64539 5.69973 9.64539Z" fill="#56D68B"/>
</svg>
