<svg width="25" height="21" viewBox="0 0 25 21" fill="none" xmlns="http://www.w3.org/2000/svg">
<path d="M19.6086 20.5C19.8067 20.5 20.0048 20.4009 20.1038 20.3019L24.0652 16.3405C24.3623 16.0434 24.3623 15.5483 24.0652 15.3502L20.1038 11.3888C19.8067 11.0917 19.3115 11.0917 19.1135 11.3888C18.8164 11.6859 18.8164 12.1811 19.1135 12.4782L21.6883 15.0531H2.67386L5.24874 12.4782C5.54584 12.1811 5.54584 11.6859 5.24874 11.3888C5.1497 11.2898 4.95163 11.1908 4.75357 11.1908C4.5555 11.1908 4.35743 11.2898 4.2584 11.3888L0.297045 15.3502C-5.6617e-05 15.6473 -5.6617e-05 16.1425 0.297045 16.4396L4.2584 20.4009C4.5555 20.698 5.05067 20.698 5.24874 20.4009C5.54584 20.1038 5.54584 19.6087 5.24874 19.3115L2.47579 16.5386H21.7874L19.0144 19.3115C18.7173 19.6087 18.7173 20.1038 19.0144 20.4009C19.2125 20.5 19.4106 20.5 19.6086 20.5Z" fill="#33CD74"/>
<path d="M18.7164 8.81406C19.1125 8.81406 19.4096 8.51696 19.4096 8.21986V0.891355C19.4096 0.594254 19.3106 0.396186 19.0135 0.297152C18.7164 0.198118 18.4193 0.297152 18.2212 0.49522L15.4483 3.56527L12.6753 0.49522C12.4772 0.297152 12.1801 0.198118 11.9821 0.297152C11.784 0.396186 11.5859 0.594254 11.5859 0.891355V8.12082C11.5859 8.51696 11.883 8.71503 12.2792 8.71503C12.6753 8.71503 12.9724 8.41793 12.9724 8.12082V2.57493L14.9531 4.95174C15.1512 5.14981 15.7454 5.14981 15.9434 4.95174L18.0231 2.57493V8.12082C18.0231 8.51696 18.3202 8.81406 18.7164 8.81406Z" fill="#33CD74"/>
<path d="M10.2019 8.02174C10.2019 7.82367 10.2019 7.72464 10.1029 7.52657L7.62704 4.25845L10.1029 0.990338C10.2019 0.891304 10.301 0.693237 10.2019 0.495169C10.2019 0.297101 10.1029 0.198068 9.90482 0.0990338H9.80578C9.90482 0 9.70675 0 9.60771 0C9.40965 0 9.21158 0.0990338 9.01351 0.297101L6.24056 3.96135V0.594203C6.24056 0.297101 5.94346 0 5.64636 0C5.25023 0 4.95312 0.297101 4.95312 0.594203V7.9227C4.95312 8.31884 5.25023 8.51691 5.64636 8.51691C5.94346 8.51691 6.24056 8.21981 6.24056 7.9227V4.55556L9.01351 8.31884C9.31061 8.61594 9.70675 8.61594 9.90482 8.41787C10.1029 8.31884 10.2019 8.21981 10.2019 8.02174Z" fill="#33CD74"/>
</svg>
