<svg width="18" height="17" viewBox="0 0 18 17" fill="none" xmlns="http://www.w3.org/2000/svg">
<path d="M6.54531 8.37703C8.84551 8.37703 10.7176 6.49834 10.7176 4.18999C10.7176 1.87868 8.84551 0 6.54531 0C4.24216 0 2.37012 1.87868 2.37012 4.18703C2.37307 6.49538 4.24512 8.37406 6.54531 8.37703ZM6.54531 1.30085C8.13094 1.30085 9.4213 2.59578 9.4213 4.18703C9.4213 5.77828 8.13094 7.07321 6.54531 7.07321C4.95968 7.07321 3.66933 5.77828 3.66933 4.18703C3.66933 2.59875 4.95968 1.30382 6.54531 1.30085Z" fill="#56D68B"/>
<path d="M17.811 10.1018L16.063 8.35053C15.9419 8.22608 15.7766 8.16089 15.6053 8.16089C15.4311 8.16089 15.2687 8.22904 15.1476 8.35053L12.0679 11.4382C10.875 9.55656 8.76673 8.39202 6.54331 8.39202C2.93504 8.39202 0 11.3375 0 14.9585C0 15.317 0.292323 15.6074 0.649606 15.6074H9.39862L9.22146 16.1408C9.14173 16.3749 9.20374 16.6357 9.37795 16.8075C9.50197 16.929 9.66437 16.9972 9.83858 16.9972C9.9065 16.9972 9.97146 16.9853 10.0394 16.9646L12.6407 16.0934C12.6614 16.0875 12.6791 16.0816 12.6998 16.0727C12.7116 16.0667 12.7205 16.0638 12.7323 16.0578C12.747 16.0519 12.7618 16.043 12.7736 16.0341C12.7854 16.0282 12.8002 16.0193 12.8061 16.0134C12.8209 16.0015 12.8356 15.9927 12.8474 15.9808L12.8652 15.9689C12.877 15.9601 12.8858 15.9512 12.8947 15.9423C12.9035 15.9334 12.9124 15.9245 12.9183 15.9156L16.8455 11.9864L17.8081 11.0204C17.9291 10.8989 17.997 10.733 17.997 10.5611C18 10.3892 17.9321 10.2233 17.811 10.1018ZM11.123 12.3864L10.314 13.1983H10.2933L10.2077 13.305C10.19 13.3287 10.1722 13.3554 10.1545 13.3791L10.1339 13.3969L10.1191 13.4413L10.1132 13.4473L9.82972 14.3007H1.34055C1.6624 11.7049 3.93307 9.68694 6.54626 9.68694C8.44783 9.69583 10.1959 10.7241 11.123 12.3864ZM11.2589 15.1837L10.8661 15.3141L10.9961 14.92L11.2589 15.1837ZM15.4695 11.5271L12.4606 14.5496L11.6309 13.7169L14.6398 10.6974L15.4695 11.5271ZM15.6024 9.73139L16.4321 10.5641L16.3907 10.6055L15.561 9.77287L15.6024 9.73139Z" fill="#56D68B"/>
</svg>
