<svg width="39" height="39" id='Google' viewBox="0 0 39 39" fill="none" xmlns="http://www.w3.org/2000/svg">
<path fill-rule="evenodd" clip-rule="evenodd" d="M19.625 37.8238C29.8423 37.8238 38.125 29.5805 38.125 19.4119C38.125 9.24329 29.8423 1 19.625 1C9.40773 1 1.125 9.24329 1.125 19.4119C1.125 29.5805 9.40773 37.8238 19.625 37.8238Z" stroke="#E10303"/>
<path d="M19.9144 20.1237C19.3575 19.7323 18.8802 19.1844 18.8006 18.9496C18.8006 18.6366 18.8006 18.48 19.5962 17.9321C20.5509 17.1494 21.1078 16.2102 21.1078 15.1927C21.1078 14.2535 20.7895 13.4708 20.3122 12.8446H20.71C20.7895 12.8446 20.8691 12.8446 20.9487 12.7664L21.9829 11.9837C22.142 11.9054 22.142 11.7489 22.142 11.5923C22.0624 11.5141 21.9033 11.4358 21.7442 11.4358H17.0504C16.4935 11.4358 16.0162 11.5141 15.4593 11.6706C13.7886 12.2968 12.5953 13.7056 12.5953 15.1927C12.5953 17.306 14.2659 18.8714 16.414 18.9496C16.414 19.1062 16.3344 19.2627 16.3344 19.4193C16.3344 19.7323 16.414 20.0454 16.5731 20.3585C14.5046 20.3585 12.5953 21.376 11.8793 22.8631C11.7201 23.2544 11.561 23.6458 11.561 24.0371C11.561 24.4285 11.6406 24.8198 11.8793 25.1329C12.3566 25.9156 13.3113 26.5418 14.5842 26.8548C15.2206 27.0114 16.0162 27.0896 16.7322 27.0896C17.4482 27.0896 18.0846 27.0114 18.6415 26.8548C20.4713 26.3069 21.7442 24.9764 21.7442 23.411C21.7442 21.9239 21.2669 20.9846 19.9144 20.1237ZM14.982 15.1144C14.9024 14.3318 15.0615 13.6273 15.4593 13.236C15.698 13.0012 16.0162 12.8446 16.414 12.8446H16.4935C17.5277 12.8446 18.562 14.0187 18.7211 15.3493C18.7211 16.1319 18.562 16.8364 18.1642 17.306C17.9255 17.5408 17.6073 17.6973 17.2095 17.6973C16.1753 17.6973 15.2206 16.5233 14.982 15.1144ZM16.7322 25.6025C15.2206 25.6025 14.0273 24.6633 14.0273 23.4893C14.0273 22.3935 15.4593 21.4543 17.0504 21.4543H17.13C17.4482 21.4543 17.846 21.5325 18.1642 21.6108C18.2438 21.6891 18.4029 21.7673 18.4824 21.8456C19.1984 22.3152 19.6758 22.7066 19.8349 23.1762C19.8349 23.3327 19.9144 23.411 19.9144 23.5675C19.7553 24.8981 18.7211 25.6025 16.7322 25.6025Z" fill="#E10303"/>
<path d="M28.9041 17.7753H26.1992V15.1924C26.1992 14.9576 26.0401 14.801 25.8014 14.801H25.0058C24.7672 14.801 24.6081 14.9576 24.6081 15.1924V17.8535H21.9032C21.6645 17.8535 21.5054 18.0101 21.5054 18.2449V19.0276C21.5054 19.2624 21.6645 19.4189 21.9032 19.4189H24.6081V22.0801C24.6081 22.3149 24.7672 22.4714 25.0058 22.4714H25.8014C26.0401 22.4714 26.1992 22.3149 26.1992 22.0801V19.2624H28.9041C29.1428 19.2624 29.3019 19.1058 29.3019 18.871V18.0883C29.3019 17.9318 29.1428 17.7753 28.9041 17.7753Z" fill="#E10303"/>
</svg>
