<svg width="18" height="18" viewBox="0 0 18 18" fill="none" xmlns="http://www.w3.org/2000/svg">
<path d="M8.99999 6.8855C8.58407 6.8855 8.24854 7.22103 8.24854 7.63695V11.4117C8.24854 11.8276 8.58407 12.1632 8.99999 12.1632C9.41591 12.1632 9.75145 11.8276 9.75145 11.4117V7.63695C9.75145 7.22103 9.41591 6.8855 8.99999 6.8855Z" fill="#56D68B"/>
<path d="M15.3402 2.40816C13.645 0.856311 11.3907 0 9 0C6.60932 0 4.35845 0.856311 2.65981 2.40816C0.943689 3.97748 0 6.07107 0 8.30097C0 10.0241 0.562718 11.6703 1.63223 13.0683L0.0559223 16.9654C-0.0594175 17.252 0.0104854 17.5736 0.23068 17.7868C0.370485 17.9231 0.555728 18 0.754951 18C0.859806 18 0.961165 17.979 1.05903 17.9371L5.53631 15.9623C6.63379 16.3852 7.80117 16.6019 9.0035 16.6019C10.5204 16.6019 12.0198 16.2489 13.341 15.5779C13.7115 15.3891 13.8583 14.9383 13.6695 14.5678C13.5402 14.3126 13.285 14.1553 12.9984 14.1553C12.8796 14.1553 12.7643 14.1833 12.6594 14.2357C11.548 14.7984 10.2827 15.099 9.0035 15.099C7.89204 15.099 6.81903 14.8823 5.81942 14.4559C5.63068 14.3755 5.41049 14.3755 5.22175 14.4594L2.14602 15.8155L3.19456 13.2221C3.29942 12.96 3.25049 12.6664 3.06874 12.4532C2.04466 11.2544 1.50291 9.81786 1.50291 8.30097C1.50291 4.55417 4.86524 1.50291 9 1.50291C13.1348 1.50291 16.4971 4.55417 16.4971 8.30097C16.4971 9.59068 16.0951 10.8454 15.3402 11.9324C15.2249 12.0967 15.1829 12.2959 15.2179 12.4951C15.2528 12.6944 15.3647 12.8656 15.5289 12.981C15.6548 13.0683 15.805 13.1173 15.9588 13.1173C16.2035 13.1173 16.4342 12.9984 16.574 12.7957C17.5072 11.4571 18.0035 9.90524 18.0035 8.30447C18 6.07107 17.0563 3.97748 15.3402 2.40816Z" fill="#56D68B"/>
<path d="M8.99999 4.47388C8.58407 4.47388 8.24854 4.80941 8.24854 5.22533C8.24854 5.64126 8.58407 5.97679 8.99999 5.97679C9.41591 5.97679 9.75145 5.64126 9.75145 5.22533C9.75145 4.80941 9.41591 4.47388 8.99999 4.47388Z" fill="#56D68B"/>
</svg>
