<svg width="37" height="37" id='Instagram' viewBox="0 0 37 37" fill="none" xmlns="http://www.w3.org/2000/svg">
<path d="M36.5 18.4993V18.5V18.5146C36.5 28.4431 28.4402 36.5 18.5073 36.5H18.4927C8.55975 36.5 0.5 28.4431 0.5 18.5146V18.5C0.5 8.55686 8.55975 0.5 18.5073 0.5C28.4406 0.5 36.5142 8.5571 36.5 18.4993Z" stroke="url(#paint0_linear)"/>
<path d="M36.5 18.4993V18.5V18.5146C36.5 28.4431 28.4402 36.5 18.5073 36.5H18.4927C8.55975 36.5 0.5 28.4431 0.5 18.5146V18.5C0.5 8.55686 8.55975 0.5 18.5073 0.5C28.4406 0.5 36.5142 8.5571 36.5 18.4993Z" stroke="url(#paint1_linear)"/>
<g clip-path="url(#clip0)">
<path fill-rule="evenodd" clip-rule="evenodd" d="M22.005 10.0541C20.441 9.98117 16.5671 9.98471 15.0017 10.0541C13.6261 10.1186 12.4127 10.4508 11.4345 11.429C9.97161 12.8919 9.9851 14.8098 10.0041 17.5119C10.0064 17.8294 10.0087 18.1578 10.0087 18.4975C10.0087 18.8154 10.007 19.1227 10.0053 19.4198C9.98983 22.2128 9.97931 24.1107 11.4345 25.5659C12.9001 27.0309 14.8391 27.0165 17.5107 26.9966H17.5107C17.8308 26.9943 18.1614 26.9918 18.503 26.9918H18.5491C21.789 26.9918 22.9143 26.9918 24.067 26.5455C25.6416 25.9343 26.8302 24.5268 26.9463 21.9988C27.02 20.434 27.0157 16.5609 26.9463 14.9955C26.8061 12.0113 25.2045 10.2015 22.005 10.0541ZM19.2623 25.4616H19.2623H19.2619C19.0138 25.461 18.7542 25.4604 18.4825 25.4604L17.996 25.4606C14.8079 25.4629 13.4718 25.4639 12.4843 24.4737C11.457 23.4512 11.474 21.8956 11.4986 19.6379C11.5026 19.2726 11.5068 18.8889 11.5068 18.4861C11.5068 18.1446 11.5037 17.8114 11.5008 17.4875L11.5008 17.4875C11.4697 14.1006 11.448 11.7366 15.0329 11.553L15.0735 11.5515C15.9438 11.5208 16.2354 11.5105 18.4725 11.5105L18.5044 11.5317C18.8279 11.5317 19.1453 11.5288 19.4556 11.526C22.7662 11.4957 25.2559 11.473 25.4185 15.0635C25.4588 15.9595 25.468 16.2287 25.468 18.4968C25.468 18.7007 25.4682 18.8976 25.4684 19.0879C25.4713 22.1626 25.4725 23.4877 24.4806 24.4843C23.4936 25.4713 22.1546 25.4682 19.2623 25.4616ZM18.5025 14.1353C16.0921 14.1353 14.1406 16.0888 14.1406 18.4972C14.1406 20.9076 16.0942 22.8591 18.5025 22.8591C20.913 22.8591 22.8645 20.9055 22.8645 18.4972C22.8645 16.0867 20.9109 14.1353 18.5025 14.1353ZM18.5025 21.3284C16.9378 21.3284 15.6713 20.0612 15.6713 18.4972C15.6713 16.9332 16.9385 15.666 18.5025 15.666C20.0665 15.666 21.3337 16.9332 21.3337 18.4972C21.3345 20.0612 20.0672 21.3284 18.5025 21.3284ZM24.0562 13.9631C24.0562 14.5261 23.5998 14.9824 23.0369 14.9824C22.4739 14.9824 22.0176 14.5261 22.0176 13.9631C22.0176 13.4002 22.4739 12.9438 23.0369 12.9438C23.5998 12.9438 24.0562 13.4002 24.0562 13.9631Z" fill="url(#paint2_linear)"/>
<path fill-rule="evenodd" clip-rule="evenodd" d="M22.005 10.0541C20.441 9.98117 16.5671 9.98471 15.0017 10.0541C13.6261 10.1186 12.4127 10.4508 11.4345 11.429C9.97161 12.8919 9.9851 14.8098 10.0041 17.5119C10.0064 17.8294 10.0087 18.1578 10.0087 18.4975C10.0087 18.8154 10.007 19.1227 10.0053 19.4198C9.98983 22.2128 9.97931 24.1107 11.4345 25.5659C12.9001 27.0309 14.8391 27.0165 17.5107 26.9966H17.5107C17.8308 26.9943 18.1614 26.9918 18.503 26.9918H18.5491C21.789 26.9918 22.9143 26.9918 24.067 26.5455C25.6416 25.9343 26.8302 24.5268 26.9463 21.9988C27.02 20.434 27.0157 16.5609 26.9463 14.9955C26.8061 12.0113 25.2045 10.2015 22.005 10.0541ZM19.2623 25.4616H19.2623H19.2619C19.0138 25.461 18.7542 25.4604 18.4825 25.4604L17.996 25.4606C14.8079 25.4629 13.4718 25.4639 12.4843 24.4737C11.457 23.4512 11.474 21.8956 11.4986 19.6379C11.5026 19.2726 11.5068 18.8889 11.5068 18.4861C11.5068 18.1446 11.5037 17.8114 11.5008 17.4875L11.5008 17.4875C11.4697 14.1006 11.448 11.7366 15.0329 11.553L15.0735 11.5515C15.9438 11.5208 16.2354 11.5105 18.4725 11.5105L18.5044 11.5317C18.8279 11.5317 19.1453 11.5288 19.4556 11.526C22.7662 11.4957 25.2559 11.473 25.4185 15.0635C25.4588 15.9595 25.468 16.2287 25.468 18.4968C25.468 18.7007 25.4682 18.8976 25.4684 19.0879C25.4713 22.1626 25.4725 23.4877 24.4806 24.4843C23.4936 25.4713 22.1546 25.4682 19.2623 25.4616ZM18.5025 14.1353C16.0921 14.1353 14.1406 16.0888 14.1406 18.4972C14.1406 20.9076 16.0942 22.8591 18.5025 22.8591C20.913 22.8591 22.8645 20.9055 22.8645 18.4972C22.8645 16.0867 20.9109 14.1353 18.5025 14.1353ZM18.5025 21.3284C16.9378 21.3284 15.6713 20.0612 15.6713 18.4972C15.6713 16.9332 16.9385 15.666 18.5025 15.666C20.0665 15.666 21.3337 16.9332 21.3337 18.4972C21.3345 20.0612 20.0672 21.3284 18.5025 21.3284ZM24.0562 13.9631C24.0562 14.5261 23.5998 14.9824 23.0369 14.9824C22.4739 14.9824 22.0176 14.5261 22.0176 13.9631C22.0176 13.4002 22.4739 12.9438 23.0369 12.9438C23.5998 12.9438 24.0562 13.4002 24.0562 13.9631Z" fill="url(#paint3_radial)"/>
<path fill-rule="evenodd" clip-rule="evenodd" d="M22.005 10.0541C20.441 9.98117 16.5671 9.98471 15.0017 10.0541C13.6261 10.1186 12.4127 10.4508 11.4345 11.429C9.97161 12.8919 9.9851 14.8098 10.0041 17.5119C10.0064 17.8294 10.0087 18.1578 10.0087 18.4975C10.0087 18.8154 10.007 19.1227 10.0053 19.4198C9.98983 22.2128 9.97931 24.1107 11.4345 25.5659C12.9001 27.0309 14.8391 27.0165 17.5107 26.9966H17.5107C17.8308 26.9943 18.1614 26.9918 18.503 26.9918H18.5491C21.789 26.9918 22.9143 26.9918 24.067 26.5455C25.6416 25.9343 26.8302 24.5268 26.9463 21.9988C27.02 20.434 27.0157 16.5609 26.9463 14.9955C26.8061 12.0113 25.2045 10.2015 22.005 10.0541ZM19.2623 25.4616H19.2623H19.2619C19.0138 25.461 18.7542 25.4604 18.4825 25.4604L17.996 25.4606C14.8079 25.4629 13.4718 25.4639 12.4843 24.4737C11.457 23.4512 11.474 21.8956 11.4986 19.6379C11.5026 19.2726 11.5068 18.8889 11.5068 18.4861C11.5068 18.1446 11.5037 17.8114 11.5008 17.4875L11.5008 17.4875C11.4697 14.1006 11.448 11.7366 15.0329 11.553L15.0735 11.5515C15.9438 11.5208 16.2354 11.5105 18.4725 11.5105L18.5044 11.5317C18.8279 11.5317 19.1453 11.5288 19.4556 11.526C22.7662 11.4957 25.2559 11.473 25.4185 15.0635C25.4588 15.9595 25.468 16.2287 25.468 18.4968C25.468 18.7007 25.4682 18.8976 25.4684 19.0879C25.4713 22.1626 25.4725 23.4877 24.4806 24.4843C23.4936 25.4713 22.1546 25.4682 19.2623 25.4616ZM18.5025 14.1353C16.0921 14.1353 14.1406 16.0888 14.1406 18.4972C14.1406 20.9076 16.0942 22.8591 18.5025 22.8591C20.913 22.8591 22.8645 20.9055 22.8645 18.4972C22.8645 16.0867 20.9109 14.1353 18.5025 14.1353ZM18.5025 21.3284C16.9378 21.3284 15.6713 20.0612 15.6713 18.4972C15.6713 16.9332 16.9385 15.666 18.5025 15.666C20.0665 15.666 21.3337 16.9332 21.3337 18.4972C21.3345 20.0612 20.0672 21.3284 18.5025 21.3284ZM24.0562 13.9631C24.0562 14.5261 23.5998 14.9824 23.0369 14.9824C22.4739 14.9824 22.0176 14.5261 22.0176 13.9631C22.0176 13.4002 22.4739 12.9438 23.0369 12.9438C23.5998 12.9438 24.0562 13.4002 24.0562 13.9631Z" fill="url(#paint4_radial)"/>
</g>
<defs>
<linearGradient id="paint0_linear" x1="33" y1="7" x2="5.5" y2="34.5" gradientUnits="userSpaceOnUse">
<stop stop-color="#AA31BE"/>
<stop offset="1" stop-color="#FF9D4B"/>
</linearGradient>
<linearGradient id="paint1_linear" x1="2.5" y1="-2" x2="14" y2="16" gradientUnits="userSpaceOnUse">
<stop offset="0.312352" stop-color="#4764CA"/>
<stop offset="1" stop-color="#6A81D4" stop-opacity="0"/>
</linearGradient>
<linearGradient id="paint2_linear" x1="18.3201" y1="27.001" x2="18.3201" y2="10.0007" gradientUnits="userSpaceOnUse">
<stop stop-color="#015AFB"/>
<stop offset="1" stop-color="#00C7F8"/>
</linearGradient>
<radialGradient id="paint3_radial" cx="0" cy="0" r="1" gradientUnits="userSpaceOnUse" gradientTransform="translate(14.5156 28.3104) rotate(-90) scale(16.8486 15.6702)">
<stop stop-color="#FFDD55"/>
<stop offset="0.1" stop-color="#FFDD55"/>
<stop offset="0.5" stop-color="#FF543E"/>
<stop offset="1" stop-color="#C837AB"/>
</radialGradient>
<radialGradient id="paint4_radial" cx="0" cy="0" r="1" gradientUnits="userSpaceOnUse" gradientTransform="translate(7.15241 11.2254) rotate(78.6808) scale(7.53137 31.0441)">
<stop stop-color="#3771C8"/>
<stop offset="0.128" stop-color="#3771C8"/>
<stop offset="1" stop-color="#6600FF" stop-opacity="0"/>
</radialGradient>
<clipPath id="clip0">
<rect width="17" height="17" fill="white" transform="translate(10 10)"/>
</clipPath>
</defs>
</svg>
