<?xml version="1.0" encoding="utf-8"?>
<svg id="KeyWord" xmlns="http://www.w3.org/2000/svg" xmlns:xlink="http://www.w3.org/1999/xlink"
x="0px" y="0px" viewBox="20 20 1000 1000" enable-background="new 0 0 1000 1000" xml:space="preserve">
<g>
<g transform="translate(0.000000,511.000000) scale(0.100000,-0.100000)">
<path d="M4497.9,4985C2821.5,4811,1343.6,3776.7,600.9,2259.6C341.1,1727.8,184.3,1173.9,123,578.3c-88.2-887.2,78.4-1799,477.9-2617.6C1500.4-3875,3453.8-4968.1,5468.4-4767.1c1708.3,174,3181.3,1196,3933.7,2732.8c664.2,1362.7,664.2,2923.9-2.4,4291.5C8502.7,4100.2,6532.1,5195.8,4497.9,4985z M5742.9,3958.1c1588.2-313.7,2791.6-1519.6,3110.2-3117.6c78.4-397,78.4-1063.7,0-1460.7c-281.9-1411.7-1274.5-2544-2620-2992.6c-419.1-137.2-725.5-183.8-1232.8-183.8c-372.5,0-502.4,9.8-730.4,53.9c-377.4,76-671.6,176.5-1022,350.5c-387.2,191.2-701,419.1-1017.1,732.8c-563.7,563.7-921.5,1240.2-1083.3,2039.2c-78.4,394.6-78.4,1061.2,0,1460.7c76,382.3,178.9,678.9,350.5,1022c193.6,389.7,419.1,703.4,732.8,1017.1c563.7,563.7,1262.2,933.8,2026.9,1075.9c362.7,68.6,409.3,71.1,840.7,63.7C5360.6,4014.4,5561.6,3994.8,5742.9,3958.1z" fill="#000000"/>
<path d="M5269.9,3137c-406.9-100.5-752.4-365.2-926.4-713.2c-125-247.5-164.2-644.6-90.7-928.9c73.5-284.3,281.9-649.5,475.5-830.9c41.7-41.7,76-80.9,76-90.7c0-14.7-872.5-1539.2-894.6-1561.2c-4.9-4.9-115.2,53.9-245.1,127.5c-129.9,76-245.1,137.2-257.3,137.2c-19.6,0-294.1-455.9-294.1-487.7c0-7.4,100.5-68.6,223-137.3c122.5-66.2,232.8-134.8,245.1-149.5c24.5-29.4-215.7-473-257.3-475.5c-12.3,0-127.5,61.3-254.9,137.3c-127.5,73.5-240.2,125-252.5,115.2c-49-51.5-267.1-458.3-259.8-482.8c7.4-14.7,269.6-174,583.3-355.4c534.3-306.4,571.1-323.5,602.9-281.9c17.1,24.5,419.1,715.6,892.1,1534.3c473,818.6,862.7,1490.2,862.7,1490.2c2.4,0,66.2-17.2,139.7-36.8c73.5-19.6,235.3-44.1,355.4-51.5c730.4-51.5,1367.6,377.4,1519.6,1022c98,424-19.6,906.8-318.6,1296.5c-272,352.9-693.6,620.1-1139.7,723C5858.1,3181.1,5453.7,3181.1,5269.9,3137z M6034.6,2267c274.5-102.9,531.9-352.9,620.1-602.9c44.1-122.5,46.6-333.3,4.9-433.8c-203.4-482.8-958.3-492.6-1397-17.2c-392.1,421.6-281.9,975.4,220.6,1102.9C5620.4,2350.3,5875.3,2328.2,6034.6,2267z" fill="#000000"/>
</g>
</g>
</svg>