<svg width="11" height="11" id="Lowcost" viewBox="0 0 11 11" fill="none" xmlns="http://www.w3.org/2000/svg">
<path d="M5.92747 10.8242L9.90004 6.85168C10.0134 6.73828 10.0757 6.58715 10.0757 6.42599C10.0757 6.26466 10.0134 6.11361 9.90004 6.00022L9.53928 5.63955C9.42606 5.52624 9.27484 5.46382 9.11359 5.46382C8.95244 5.46382 8.79612 5.52624 8.6829 5.63955L6.36031 7.95704L6.36031 0.594262C6.36031 0.262298 6.10042 4.74045e-08 5.76837 5.13642e-08L5.25835 5.74461e-08C4.9263 6.14058e-08 4.64021 0.262298 4.64021 0.594262L4.64021 7.98333L2.30465 5.63964C2.19125 5.52633 2.04414 5.46391 1.8829 5.46391C1.72183 5.46391 1.57257 5.52633 1.45927 5.63964L1.09967 6.00031C0.986271 6.1137 0.924475 6.26475 0.924475 6.42608C0.924475 6.58724 0.987075 6.73837 1.10047 6.85177L5.07296 10.8243C5.18672 10.9379 5.33857 11.0004 5.49999 11C5.66195 11.0003 5.81389 10.9379 5.92747 10.8242Z" fill="#FE7664"/>
</svg>
