<?xml version="1.0" encoding="iso-8859-1"?>
<svg xmlns="http://www.w3.org/2000/svg" xmlns:xlink="http://www.w3.org/1999/xlink" xml:space="preserve" id="MainLogo" width="210mm" height="297mm" version="1.1"
style="shape-rendering:geometricPrecision; text-rendering:geometricPrecision; image-rendering:optimizeQuality; fill-rule:evenodd; clip-rule:evenodd"
viewBox="0 0 21000 29700">
 <defs>
  <style type="text/css">
   <![CDATA[
    .fil2 {fill:none}
    .fil0 {fill:#FE7664}
    .fil1 {fill:url(#id1);fill-opacity:0.768627}
   ]]>
  </style>
   <clipPath id="id0">
    <path d="M10304.36 5882.16c3555.69,0 6438.13,2734.59 6438.13,6107.87 0,3373.28 -2882.44,6107.87 -6438.13,6107.87 -3555.7,0 -6438.14,-2734.59 -6438.14,-6107.87 0,-3373.28 2882.44,-6107.87 6438.14,-6107.87z"/>
   </clipPath>
  <radialGradient id="id1" gradientUnits="userSpaceOnUse" gradientTransform="matrix(0.444568 -1.12603 -1.12959 -0.438352 21013 31696)" cx="11795.59" cy="12801.88" r="4030.03" fx="11795.59" fy="12801.88">
   <stop offset="0" style="stop-opacity:1; stop-color:#56D68B"/>
   <stop offset="0.529412" style="stop-opacity:1; stop-color:#40C37A"/>
   <stop offset="1" style="stop-opacity:1; stop-color:#2AB06A"/>
  </radialGradient>
 </defs>
 <g id="Слой_x0020_1">
  <metadata id="CorelCorpID_0Corel-Layer"/>
  <g>
  </g>
  <g style="clip-path:url(#id0)">
   <g>
    <path class="fil0" d="M15720.9 15509.52c-6909.39,3928.05 -8067.53,-3709.11 -10579.24,-2690.86 -467.37,189.51 -1688.18,2164.33 1747.07,4490.85 563.53,381.64 1115.06,659.84 1652.17,848.61 2945.7,1035.16 5461.44,-618.82 7180,-2648.6z"/>
    <path class="fil1" d="M5232.43 15861.72c6168.73,3507 7878.71,-6399.13 10721.28,-5296.03 936.78,363.53 1776.18,3802.46 -2027.72,6584.58 -1147.04,838.97 -2326.17,1286.98 -3452.93,1334.46 -1321.97,55.72 -2875.39,-628.06 -3875.52,-1318.93 -937.8,-647.82 -1365.06,-1303.97 -1365.11,-1304.08z"/>
   </g>
  </g>
  <path class="fil2" d="M10304.36 5882.16c3555.69,0 6438.13,2734.59 6438.13,6107.87 0,3373.28 -2882.44,6107.87 -6438.13,6107.87 -3555.7,0 -6438.14,-2734.59 -6438.14,-6107.87 0,-3373.28 2882.44,-6107.87 6438.14,-6107.87z"/>
 </g>
</svg>
