<svg width="26" height="26" viewBox="0 0 26 26" fill="none" xmlns="http://www.w3.org/2000/svg">
<g clip-path="url(#clip0)">
<path d="M18.6875 26H2.98086C1.33555 26 0 24.6645 0 23.0191V2.98086C0 1.33555 1.33555 0 2.98086 0H11.4766C11.9234 0 12.2891 0.365625 12.2891 0.8125C12.2891 1.25937 11.9234 1.625 11.4766 1.625H2.98086C2.23438 1.625 1.625 2.23438 1.625 2.98086V23.0242C1.625 23.7656 2.23438 24.375 2.98086 24.375H18.6875C19.434 24.375 20.0434 23.7656 20.0434 23.0191V16.6055C20.0434 16.1586 20.409 15.793 20.8559 15.793C21.3027 15.793 21.6684 16.1586 21.6684 16.6055V23.0191C21.6684 24.6645 20.3328 26 18.6875 26Z" fill="#505050"/>
<path d="M18.9569 14.0816C15.0722 14.0816 11.9136 10.923 11.9136 7.03828C11.9136 3.15352 15.0772 0 18.9569 0C22.8366 0 26.0003 3.15859 26.0003 7.04336C26.0003 10.9281 22.8417 14.0816 18.9569 14.0816ZM18.9569 1.625C15.971 1.625 13.5386 4.05742 13.5386 7.04336C13.5386 10.0293 15.971 12.4617 18.9569 12.4617C21.9429 12.4617 24.3753 10.0293 24.3753 7.04336C24.3753 4.05742 21.9429 1.625 18.9569 1.625Z" fill="#505050"/>
<path d="M17.8747 10.0191C17.6614 10.0191 17.4532 9.93281 17.3009 9.78046L15.1325 7.61718C14.8126 7.29726 14.8126 6.78437 15.1325 6.46953C15.4524 6.14961 15.9653 6.14961 16.2802 6.46953L17.8341 8.02343L21.0536 4.34687C21.3481 4.01172 21.861 3.97617 22.2013 4.2707C22.5415 4.56523 22.572 5.07812 22.2774 5.41836L18.4841 9.74999C18.3368 9.91757 18.1235 10.0191 17.9001 10.0293C17.895 10.0191 17.8849 10.0191 17.8747 10.0191Z" fill="#505050"/>
<path d="M13.3913 16.1128H5.23584C4.7585 16.1128 4.37256 16.4987 4.37256 16.9761C4.37256 17.4534 4.7585 17.8394 5.23584 17.8394H13.3964C13.8737 17.8394 14.2597 17.4534 14.2597 16.9761C14.2597 16.4987 13.8687 16.1128 13.3913 16.1128Z" fill="#505050"/>
<path d="M9.31358 12.6597H5.23584C4.7585 12.6597 4.37256 13.0456 4.37256 13.5229C4.37256 14.0003 4.7585 14.3862 5.23584 14.3862H9.31358C9.79093 14.3862 10.1769 14.0003 10.1769 13.5229C10.1769 13.0456 9.79093 12.6597 9.31358 12.6597Z" fill="#505050"/>
<path d="M13.3913 19.5811H5.23584C4.7585 19.5811 4.37256 19.967 4.37256 20.4443C4.37256 20.9217 4.7585 21.3076 5.23584 21.3076H13.3964C13.8737 21.3076 14.2597 20.9217 14.2597 20.4443C14.2597 19.967 13.8687 19.5811 13.3913 19.5811Z" fill="#505050"/>
</g>
<defs>
<clipPath id="clip0">
<rect width="26" height="26" fill="white"/>
</clipPath>
</defs>
</svg>
