<svg width="16" height="20" viewBox="0 0 16 20" fill="none" xmlns="http://www.w3.org/2000/svg">
  <path d="M14.875 13.75C14.1857 13.75 13.625 13.1893 13.625 12.5V8.125C13.625 6.61883 13.0374 5.20379 11.9704 4.14055C11.3127 3.48508 10.5217 3.0125 9.65887 2.7475C9.7966 2.48672 9.875 2.18992 9.875 1.875C9.875 0.841133 9.03387 0 8 0C6.96613 0 6.125 0.841133 6.125 1.875C6.125 2.19172 6.20422 2.4902 6.34348 2.75207C4.04875 3.46883 2.375 5.6332 2.375 8.1793V12.5C2.375 13.1893 1.81426 13.75 1.125 13.75C0.779844 13.75 0.5 14.0298 0.5 14.375V16.875C0.5 17.2202 0.779844 17.5 1.125 17.5H5.83496C5.82035 17.6027 5.8125 17.707 5.8125 17.8125C5.8125 19.0187 6.79383 20 8 20C9.20617 20 10.1875 19.0187 10.1875 17.8125C10.1875 17.707 10.1797 17.6027 10.165 17.5H14.875C15.2202 17.5 15.5 17.2202 15.5 16.875V14.375C15.5 14.0298 15.2202 13.75 14.875 13.75ZM8 1.25C8.34461 1.25 8.625 1.53039 8.625 1.875C8.625 2.21961 8.34461 2.5 8 2.5C7.65539 2.5 7.375 2.21961 7.375 1.875C7.375 1.53039 7.65539 1.25 8 1.25ZM8.9375 17.8125C8.9375 18.3295 8.51695 18.75 8 18.75C7.48305 18.75 7.0625 18.3295 7.0625 17.8125C7.0625 17.7045 7.08055 17.5993 7.11566 17.5H8.8843C8.91945 17.5993 8.9375 17.7045 8.9375 17.8125ZM14.25 16.25H9.25H6.75H1.75V14.9209C2.82707 14.6427 3.625 13.6628 3.625 12.5V8.1793C3.625 5.74543 5.58055 3.75848 7.98426 3.75004C7.98957 3.75004 7.99481 3.75 8.00008 3.75C9.16586 3.75 10.262 4.20277 11.0881 5.02598C11.918 5.85293 12.375 6.95355 12.375 8.125V12.5C12.375 13.6628 13.1729 14.6427 14.25 14.9209V16.25Z" fill="#56D68B"/>
</svg>