<svg width="22" height="26" viewBox="0 0 22 26" fill="none" xmlns="http://www.w3.org/2000/svg" id="OrdersList">
<g clip-path="url(#clip0)">
<path d="M21.0046 4.42361C21.0046 3.97824 20.6375 3.61111 20.1921 3.61111H16.7315V2.61806C16.7315 1.17361 15.5579 0 14.1134 0C12.669 0 11.4954 1.17361 11.4954 2.61806V3.61111H9.50926V2.61806C9.50926 1.17361 8.33565 0 6.8912 0C5.44676 0 4.27315 1.17361 4.27315 2.61806V3.61111H0.8125C0.36713 3.61111 0 3.97824 0 4.42361V25.1875C0 25.6329 0.36713 26 0.8125 26H20.1921C20.6375 26 21.0046 25.6329 21.0046 25.1875V4.42361ZM13.1204 2.61806C13.1204 2.07037 13.5657 1.625 14.1134 1.625C14.6611 1.625 15.1065 2.07037 15.1065 2.61806V3.61111H13.1204V2.61806ZM5.89815 2.61806C5.89815 2.07037 6.34352 1.625 6.8912 1.625C7.43889 1.625 7.88426 2.07037 7.88426 2.61806V3.61111H5.89815V2.61806ZM19.3796 24.375H1.625V5.23611H4.27315V6.22917C4.27315 7.67361 5.44676 8.84722 6.8912 8.84722C7.33657 8.84722 7.7037 8.48009 7.7037 8.03472C7.7037 7.58935 7.33657 7.22222 6.8912 7.22222C6.34352 7.22222 5.89815 6.77685 5.89815 6.22917V5.23611H11.4954V6.22917C11.4954 7.67361 12.669 8.84722 14.1134 8.84722C14.5588 8.84722 14.9259 8.48009 14.9259 8.03472C14.9259 7.58935 14.5588 7.22222 14.1134 7.22222C13.5657 7.22222 13.1204 6.77685 13.1204 6.22917V5.23611H19.3796V24.375Z" fill="#505050"/>
<path d="M5.11554 11.5854C4.65212 11.5854 4.27295 11.9646 4.27295 12.428C4.27295 12.8915 4.65212 13.2706 5.11554 13.2706C5.57897 13.2706 5.95813 12.8915 5.95813 12.428C5.95813 11.9646 5.57897 11.5854 5.11554 11.5854Z" fill="#505050"/>
<path d="M5.11554 15.1968C4.65212 15.1968 4.27295 15.5759 4.27295 16.0394C4.27295 16.5028 4.65212 16.8819 5.11554 16.8819C5.57897 16.8819 5.95813 16.5028 5.95813 16.0394C5.95813 15.5759 5.57897 15.1968 5.11554 15.1968Z" fill="#505050"/>
<path d="M5.11554 18.8081C4.65212 18.8081 4.27295 19.1873 4.27295 19.6507C4.27295 20.1141 4.65212 20.4933 5.11554 20.4933C5.57897 20.4933 5.95813 20.1141 5.95813 19.6507C5.95813 19.1873 5.57897 18.8081 5.11554 18.8081Z" fill="#505050"/>
<path d="M15.991 11.5854H8.11278C7.65537 11.5854 7.28223 11.9586 7.28223 12.416V12.4341C7.28223 12.8915 7.65537 13.2646 8.11278 13.2646H15.985C16.4424 13.2646 16.8156 12.8915 16.8156 12.4341V12.416C16.8216 11.9586 16.4484 11.5854 15.991 11.5854Z" fill="#505050"/>
<path d="M15.991 15.1968H8.11278C7.65537 15.1968 7.28223 15.5699 7.28223 16.0273V16.0454C7.28223 16.5028 7.65537 16.8759 8.11278 16.8759H15.985C16.4424 16.8759 16.8156 16.5028 16.8156 16.0454V16.0273C16.8216 15.5699 16.4484 15.1968 15.991 15.1968Z" fill="#505050"/>
<path d="M15.991 18.8081H8.11278C7.65537 18.8081 7.28223 19.1813 7.28223 19.6387V19.6567C7.28223 20.1141 7.65537 20.4873 8.11278 20.4873H15.985C16.4424 20.4873 16.8156 20.1141 16.8156 19.6567V19.6387C16.8216 19.1813 16.4484 18.8081 15.991 18.8081Z" fill="#505050"/>
</g>
<defs>
<clipPath id="clip0">
<rect width="21.0046" height="26" fill="white"/>
</clipPath>
</defs>
</svg>
