<svg width="39" height="31" viewBox="0 0 39 31" fill="none" xmlns="http://www.w3.org/2000/svg" id="PhotoCamera">
<path d="M0.298828 9.43796V26.2045C0.298828 28.7637 2.3772 30.842 4.93638 30.842H33.6613C36.2205 30.842 38.2988 28.7637 38.2988 26.2045V9.43796C38.2988 7.00286 36.3213 5.02531 33.8862 5.02531H27.7131L27.5658 4.38163C26.9686 1.79918 24.6964 0 22.0441 0H16.5458C13.9013 0 11.629 1.79918 11.0241 4.38163L10.8768 5.02531H4.71148C2.27638 5.02531 0.298828 7.01061 0.298828 9.43796ZM11.6368 6.92531C12.0788 6.92531 12.4588 6.62286 12.5596 6.18857L12.8776 4.80816C13.2809 3.09429 14.7854 1.9 16.5458 1.9H22.0441C23.8045 1.9 25.309 3.09429 25.7123 4.80816L26.0303 6.18857C26.1311 6.6151 26.5111 6.92531 26.9531 6.92531H33.8784C35.2666 6.92531 36.3911 8.0498 36.3911 9.43796V26.2045C36.3911 27.7167 35.1658 28.942 33.6535 28.942H4.93638C3.42413 28.942 2.19883 27.7167 2.19883 26.2045V9.43796C2.19883 8.0498 3.32332 6.92531 4.71148 6.92531H11.6368Z" fill="#FFFFFF"/>
<path d="M6.72789 12.2531C7.43031 12.2531 7.99973 11.6837 7.99973 10.9813C7.99973 10.2789 7.43031 9.70947 6.72789 9.70947C6.02548 9.70947 5.45605 10.2789 5.45605 10.9813C5.45605 11.6837 6.02548 12.2531 6.72789 12.2531Z" fill="#FFFFFF"/>
<path d="M19.2988 25.9639C23.696 25.9639 27.2788 22.381 27.2788 17.9839C27.2788 13.5868 23.696 10.0039 19.2988 10.0039C14.9017 10.0039 11.3188 13.579 11.3188 17.9839C11.3188 22.3888 14.9017 25.9639 19.2988 25.9639ZM19.2988 11.9039C22.6491 11.9039 25.3788 14.6337 25.3788 17.9839C25.3788 21.3341 22.6491 24.0639 19.2988 24.0639C15.9486 24.0639 13.2188 21.3341 13.2188 17.9839C13.2188 14.6337 15.9486 11.9039 19.2988 11.9039Z" fill="#FFFFFF"/>
</svg>
