<svg width="25" height="21" viewBox="0 0 25 21" fill="none" xmlns="http://www.w3.org/2000/svg">
<g clip-path="url(#clip0)">
<path d="M19.3 18C22.1 18 24.3 15.7 24.3 12.9V5.1C24.3 2.3 22.1 0 19.3 0H5C2.2 0 0 2.3 0 5.1V13C0 14.1 0.3 15.2 1 16C1.6 16.9 2.5 17.5 3.5 17.8L3.6 17.9L6 20.3C6.3 20.6 6.7 20.6 7 20.3L9.2 18H19.3ZM8.3 16.8L6.4 18.7L4.4 16.6C4.3 16.5 4.2 16.4 4.1 16.4C2.5 16 1.4 14.6 1.4 13V5.1C1.4 3.1 3 1.5 4.9 1.5H19.2C21.2 1.5 22.7 3.1 22.7 5.1V12.9C22.7 14.9 21.1 16.5 19.2 16.5H8.9C8.7 16.5 8.5 16.6 8.3 16.8Z" fill="#33CD74"/>
<path d="M16.7 6.3999H7.7C7.3 6.3999 7 6.6999 7 7.0999C7 7.4999 7.3 7.7999 7.7 7.7999H16.7C17.1 7.7999 17.4 7.4999 17.4 7.0999C17.4 6.7999 17.1 6.3999 16.7 6.3999Z" fill="#33CD74"/>
<path d="M16.7 10.1001H7.7C7.3 10.1001 7 10.4001 7 10.8001C7 11.2001 7.3 11.5001 7.7 11.5001H16.7C17.1 11.5001 17.4 11.2001 17.4 10.8001C17.4 10.4001 17.1 10.1001 16.7 10.1001Z" fill="#33CD74"/>
</g>
<defs>
<clipPath id="clip0">
<rect width="24.3" height="20.5" fill="white"/>
</clipPath>
</defs>
</svg>
