<svg width="30" height="30" viewBox="0 0 30 30" fill="none" xmlns="http://www.w3.org/2000/svg" id="Rubl">
<path fill-rule="evenodd" clip-rule="evenodd" d="M15 30C23.2843 30 30 23.2843 30 15C30 6.71573 23.2843 0 15 0C6.71573 0 0 6.71573 0 15C0 23.2843 6.71573 30 15 30Z" fill="#EBFCF2"/>
<g clip-path="url(#clip0)">
<path d="M17.7205 7H12.6835C12.2391 7 11.8754 7.36364 11.8754 7.80808V14.1919H9.80808C9.36364 14.1919 9 14.5556 9 15C9 15.4444 9.36364 15.8081 9.80808 15.8081H11.8754V18.5017H9.80808C9.36364 18.5017 9 18.8653 9 19.3098C9 19.7542 9.36364 20.1178 9.80808 20.1178H11.8754V22.1852C11.8754 22.6296 12.2391 22.9933 12.6835 22.9933C13.1279 22.9933 13.4916 22.6296 13.4916 22.1852V20.1178H16.9933C17.4377 20.1178 17.8013 19.7542 17.8013 19.3098C17.8013 18.8653 17.4377 18.5017 16.9933 18.5017H13.4916V15.8081H17.7138C20.1448 15.8081 22.1178 13.835 22.1178 11.404C22.1178 8.97306 20.1515 7 17.7205 7ZM17.7205 14.1919H13.4983V8.61616H17.7205C19.2559 8.61616 20.5084 9.86869 20.5084 11.404C20.5017 12.9394 19.2559 14.1919 17.7205 14.1919Z" fill="#56D68B"/>
</g>
<defs>
<clipPath id="clip0">
<rect width="14" height="16" fill="white" transform="translate(8 7)"/>
</clipPath>
</defs>
</svg>