<svg width="19" height="23" viewBox="0 0 19 23" fill="none" xmlns="http://www.w3.org/2000/svg">
<path d="M18.4703 6.69587L18.4704 6.69688L18.4704 6.70014C18.5172 9.16483 18.5755 12.2427 17.5433 15.0413C16.9767 16.5777 16.1191 17.9139 14.9943 19.0125C13.7139 20.2629 12.0385 21.2549 10.0163 21.9621C9.94811 21.986 9.87715 22.0053 9.8054 22.0197L9.80536 22.0197C9.70426 22.0399 9.60213 22.05 9.50013 22.05C9.39812 22.05 9.29615 22.0399 9.19491 22.0197L9.19486 22.0197C9.12312 22.0053 9.05265 21.9861 8.98475 21.9624C6.96014 21.2565 5.283 20.265 4.00149 19.0144L4.03641 18.9786L4.00149 19.0144C2.87619 17.9161 2.01857 16.5803 1.45246 15.0442C0.424042 12.2538 0.482621 9.18158 0.529527 6.7215L0.529584 6.71851L0.52959 6.71819H0.529591L0.530552 6.68022L0.530577 6.67924L0.530586 6.67924C0.539694 6.47665 0.545929 6.26374 0.549447 6.02835L18.4703 6.69587ZM18.4703 6.69587L18.4697 6.67953L18.4697 6.67923M18.4703 6.69587L18.4697 6.67923M18.4697 6.67923C18.4606 6.47812 18.4545 6.26522 18.4508 6.02819M18.4697 6.67923L10.4615 1.33475M10.4615 1.33475L10.4619 1.33513C12.0484 2.88151 13.9044 3.66448 16.308 3.79861C17.4922 3.8648 18.4333 4.84399 18.4508 6.02819M10.4615 1.33475L10.4479 1.32177L10.4479 1.32176M10.4615 1.33475L10.4479 1.32176M18.4508 6.02819L18.4008 6.02893L18.4508 6.02815C18.4508 6.02816 18.4508 6.02817 18.4508 6.02819ZM10.4479 1.32176L10.4472 1.32111M10.4479 1.32176L10.4472 1.32111M10.4472 1.32111C9.90749 0.826294 9.09292 0.826301 8.55311 1.32111L8.5531 1.3211M10.4472 1.32111L8.5531 1.3211M8.5531 1.3211L8.5524 1.32177M8.5531 1.3211L8.5524 1.32177M8.5524 1.32177L8.53878 1.33474L8.53837 1.33514M8.5524 1.32177L8.53837 1.33514M8.53837 1.33514C6.95186 2.88151 5.09581 3.66448 2.69229 3.79877M8.53837 1.33514L2.69229 3.79877M17.1188 6.0481L17.1188 6.04808C17.1116 5.56017 16.7228 5.15615 16.2338 5.12892C14.8624 5.05238 13.6563 4.78728 12.5473 4.31787C11.4405 3.8493 10.4575 3.18892 9.54286 2.29984C9.51614 2.27786 9.48447 2.27777 9.45733 2.29991C8.54288 3.18896 7.55989 3.84932 6.45291 4.31787C5.34397 4.78728 4.13787 5.05238 2.76659 5.12892C2.27758 5.15615 1.88882 5.56016 1.8815 6.04791C1.8815 6.04792 1.8815 6.04793 1.8815 6.04794L1.83151 6.04719L17.1188 6.0481ZM17.1188 6.0481C17.1224 6.29497 17.1289 6.5186 17.1385 6.73079M17.1188 6.0481L17.1385 6.73079M17.1385 6.73079C17.1856 9.21657 17.237 12.0218 16.2934 14.5803C15.2183 17.4951 13.0244 19.4988 9.57701 20.7044C9.56647 20.708 9.55553 20.711 9.54444 20.7133C9.5152 20.719 9.48549 20.719 9.45573 20.7131L17.1385 6.73079ZM2.69229 3.79877C1.50826 3.8648 0.566983 4.84399 0.549447 6.02834L2.69229 3.79877ZM9.42342 20.7045C5.97225 19.5011 3.77682 17.4985 2.70258 14.5836C1.76157 12.0302 1.81434 9.22705 1.86163 6.74396L1.86194 6.73094L9.42342 20.7045ZM9.42342 20.7045C9.42345 20.7045 9.42348 20.7045 9.4235 20.7045L9.40704 20.7517L9.42342 20.7045Z" stroke="#FE7664" stroke-width="0.1"/>
<path d="M9.49986 6.21685C6.58641 6.21685 4.21636 8.58706 4.21636 11.5003C4.21636 14.4138 6.58641 16.784 9.49986 16.784C12.4131 16.784 14.7834 14.4138 14.7834 11.5003C14.7834 8.58706 12.4131 6.21685 9.49986 6.21685ZM9.49986 15.4516C7.32112 15.4516 5.54859 13.6791 5.54859 11.5003C5.54859 9.32161 7.32112 7.54908 9.49986 7.54908C11.6784 7.54908 13.451 9.3216 13.451 11.5003C13.451 13.6791 11.6784 15.4516 9.49986 15.4516Z" fill="#FE7664" stroke="#FE7664" stroke-width="0.1"/>
<path d="M10.9691 9.84033L8.57362 12.2358L7.9492 11.6114C7.68903 11.3512 7.26724 11.3512 7.00707 11.6114L7.00706 11.6114C6.74707 11.8715 6.74705 12.2933 7.00707 12.5533L8.10264 13.6489C8.23272 13.779 8.40326 13.8439 8.57362 13.8439C8.74398 13.8439 8.91452 13.779 9.04461 13.6489L11.9112 10.7823L11.9112 10.7823C12.1712 10.5221 12.1712 10.1003 11.9112 9.84032C11.651 9.57998 11.2293 9.57998 10.9691 9.84032C10.9691 9.84032 10.9691 9.84033 10.9691 9.84033Z" fill="#FE7664" stroke="#FE7664" stroke-width="0.1"/>
</svg>
