<svg width="18" id="SendMsg" height="18" viewBox="0 0 18 18" fill="none" xmlns="http://www.w3.org/2000/svg">
<g clip-path="url(#clip0)">
<path d="M17.0401 7.29132L2.72445 0.363993C1.78147 -0.0930438 0.646564 0.300883 0.18949 1.24386C-0.0435686 1.72469 -0.0630612 2.28149 0.135792 2.77747L2.37217 8.36648H17.9996C17.835 7.89499 17.4899 7.50822 17.0401 7.29132Z" fill="#56D68B"/>
<path d="M2.37341 9.63135L0.137032 15.2216C-0.251039 16.1976 0.225564 17.3034 1.20156 17.6915C1.42254 17.7794 1.65808 17.8251 1.89588 17.8261C2.18323 17.8261 2.46687 17.7612 2.72565 17.6364L17.0413 10.7065C17.4911 10.4896 17.8362 10.1028 18.0007 9.63135H2.37341Z" fill="#56D68B"/>
</g>
<defs>
<clipPath id="clip0">
<rect width="18" height="18" fill="white"/>
</clipPath>
</defs>
</svg>
