<svg width="26" height="26" viewBox="0 0 26 26" fill="none" xmlns="http://www.w3.org/2000/svg" id="Setting">
<g clip-path="url(#clip0)">
<path d="M23.445 9.63976H23.045C22.89 9.17476 22.7 8.71476 22.48 8.27476L22.76 7.99476C23.245 7.50976 23.51 6.86976 23.51 6.18976C23.51 5.50476 23.245 4.85976 22.76 4.37976L21.625 3.24476C21.14 2.75976 20.5 2.49476 19.815 2.49476C19.135 2.49476 18.495 2.75976 18.01 3.24476L17.725 3.52976C17.285 3.30976 16.825 3.11976 16.36 2.96476V2.56476C16.36 1.15477 15.215 0.00976562 13.805 0.00976562H12.2C10.79 0.00976562 9.645 1.15477 9.645 2.56476V2.96476C9.18 3.11976 8.72 3.30976 8.28 3.52976L8 3.24976C7.515 2.76476 6.875 2.49976 6.195 2.49976C5.51 2.49976 4.865 2.76476 4.385 3.24976L3.24 4.37476C2.755 4.85976 2.49 5.49976 2.49 6.18476C2.49 6.86476 2.755 7.50476 3.24 7.98976L3.525 8.26976C3.305 8.70976 3.115 9.16976 2.96 9.63476H2.56C1.145 9.63976 0 10.7848 0 12.1948V13.7998C0 15.2098 1.145 16.3548 2.555 16.3548H2.955C3.11 16.8198 3.3 17.2798 3.52 17.7198L3.24 17.9998C2.755 18.4848 2.49 19.1248 2.49 19.8048C2.49 20.4898 2.755 21.1348 3.24 21.6148L4.375 22.7498C4.86 23.2348 5.5 23.4998 6.185 23.4998C6.865 23.4998 7.505 23.2348 7.99 22.7498L8.275 22.4648C8.715 22.6848 9.175 22.8748 9.64 23.0298V23.4298C9.64 24.8398 10.785 25.9848 12.195 25.9848H13.8C15.21 25.9848 16.355 24.8398 16.355 23.4298V23.0298C16.82 22.8748 17.28 22.6848 17.72 22.4648L18 22.7448C18.485 23.2298 19.125 23.4948 19.805 23.4948C20.49 23.4948 21.135 23.2298 21.615 22.7448L22.75 21.6098C23.235 21.1248 23.5 20.4848 23.5 19.7998C23.5 19.1198 23.235 18.4798 22.75 17.9948L22.465 17.7098C22.685 17.2698 22.875 16.8098 23.03 16.3448H23.43C24.84 16.3448 25.985 15.1998 25.985 13.7898V12.1848C26 10.7848 24.855 9.63976 23.445 9.63976ZM21.415 15.1748C21.21 15.9598 20.9 16.7148 20.485 17.4148C20.265 17.7898 20.325 18.2648 20.63 18.5698L21.415 19.3548C21.54 19.4798 21.605 19.6448 21.605 19.8198C21.605 19.9948 21.535 20.1598 21.415 20.2848L20.28 21.4198C20.155 21.5448 19.99 21.6098 19.815 21.6098C19.64 21.6098 19.475 21.5398 19.35 21.4198L18.565 20.6348C18.385 20.4548 18.145 20.3548 17.895 20.3548C17.725 20.3548 17.56 20.3998 17.41 20.4848C16.71 20.8998 15.955 21.2098 15.17 21.4148C14.75 21.5248 14.455 21.8998 14.455 22.3348V23.4398C14.455 23.7998 14.16 24.0948 13.8 24.0948H12.195C11.835 24.0948 11.54 23.7998 11.54 23.4398V22.3348C11.54 21.8998 11.245 21.5248 10.825 21.4148C10.04 21.2098 9.285 20.8998 8.585 20.4848C8.435 20.3948 8.275 20.3498 8.11 20.3498C7.86 20.3498 7.605 20.4548 7.43 20.6298L6.645 21.4148C6.52 21.5398 6.355 21.6048 6.18 21.6048C6.005 21.6048 5.84 21.5348 5.715 21.4148L4.58 20.2798C4.455 20.1548 4.39 19.9898 4.39 19.8148C4.39 19.6398 4.46 19.4748 4.58 19.3498L5.365 18.5648C5.67 18.2598 5.73 17.7848 5.51 17.4098C5.095 16.7098 4.785 15.9548 4.58 15.1698C4.47 14.7498 4.095 14.4548 3.66 14.4548H2.555C2.195 14.4548 1.9 14.1598 1.9 13.7998V12.1948C1.9 11.8348 2.195 11.5398 2.555 11.5398H3.66C4.095 11.5398 4.47 11.2448 4.58 10.8248C4.785 10.0398 5.095 9.28476 5.51 8.58476C5.73 8.20976 5.67 7.73476 5.365 7.42976L4.58 6.64476C4.455 6.51976 4.39 6.35476 4.39 6.17976C4.39 6.00476 4.46 5.83976 4.58 5.71476L5.715 4.57976C5.84 4.45476 6.005 4.38976 6.18 4.38976C6.355 4.38976 6.52 4.45976 6.645 4.57976L7.43 5.36476C7.61 5.54476 7.85 5.64476 8.1 5.64476C8.27 5.64476 8.435 5.59976 8.585 5.51476C9.285 5.09976 10.04 4.78976 10.825 4.58476C11.245 4.47476 11.54 4.09976 11.54 3.66476V2.55476C11.54 2.19476 11.835 1.89976 12.195 1.89976H13.8C14.16 1.89976 14.455 2.19476 14.455 2.55476V3.65976C14.455 4.09476 14.75 4.46976 15.17 4.57976C15.955 4.78476 16.71 5.09476 17.41 5.50976C17.555 5.59476 17.725 5.63976 17.895 5.63976C18.15 5.63976 18.39 5.53976 18.565 5.35976L19.35 4.57476C19.475 4.44976 19.64 4.38476 19.815 4.38476C19.99 4.38476 20.155 4.45476 20.28 4.57476L21.415 5.70976C21.54 5.83476 21.605 5.99976 21.605 6.17476C21.605 6.34976 21.535 6.51476 21.415 6.63976L20.63 7.42476C20.325 7.72976 20.265 8.20476 20.485 8.57976C20.9 9.27976 21.21 10.0348 21.415 10.8198C21.525 11.2398 21.9 11.5348 22.335 11.5348H23.44C23.8 11.5348 24.095 11.8298 24.095 12.1898V13.7948C24.095 14.1548 23.8 14.4498 23.44 14.4498H22.335C21.905 14.4598 21.525 14.7548 21.415 15.1748Z" fill="#fff" stroke="white" stroke-width="0.2"/>
<path d="M13 7.22998C9.81998 7.22998 7.22998 9.81998 7.22998 13C7.22998 16.18 9.81998 18.77 13 18.77C16.18 18.77 18.77 16.18 18.77 13C18.77 9.81998 16.18 7.22998 13 7.22998ZM13 16.87C10.865 16.87 9.12998 15.135 9.12998 13C9.12998 10.865 10.865 9.12998 13 9.12998C15.135 9.12998 16.87 10.865 16.87 13C16.87 15.135 15.135 16.87 13 16.87Z" fill="#fff" stroke="white" stroke-width="0.2"/>
</g>
<defs>
<clipPath id="clip0">
<rect width="26" height="26" fill="white"/>
</clipPath>
</defs>
</svg>
