<svg width="21" height="21" id="Time" viewBox="0 0 21 21" fill="none" xmlns="http://www.w3.org/2000/svg">
<path d="M10.25 0C4.59865 0 0 4.59865 0 10.25C0 15.9014 4.59865 20.5 10.25 20.5C15.9014 20.5 20.5 15.9014 20.5 10.25C20.5 4.59865 15.9014 0 10.25 0ZM10.25 18.9961C5.42577 18.9961 1.50386 15.0742 1.50386 10.25C1.50386 5.42577 5.42577 1.50386 10.25 1.50386C15.0742 1.50386 18.9961 5.42577 18.9961 10.25C18.9961 15.0742 15.0742 18.9961 10.25 18.9961Z" fill="#33CD74"/>
<path d="M11.0019 4.55125C11.0019 4.13597 10.6653 3.79932 10.25 3.79932C9.8347 3.79932 9.49805 4.13597 9.49805 4.55125V10.5627L13.0697 14.1344C13.3637 14.4284 13.8403 14.4284 14.1343 14.1344C14.4283 13.8404 14.4283 13.3638 14.1343 13.0698L11.0019 9.93744V4.55125Z" fill="#33CD74"/>
</svg>
