<svg width="22" height="26" viewBox="0 0 22 26" fill="none" xmlns="http://www.w3.org/2000/svg" id="User">
<g clip-path="url(#clip0)">
<path d="M16.5501 5.89154C16.5501 5.80762 16.5501 5.74048 16.5501 5.70691C16.3822 2.61846 14.8548 1.27566 13.9652 0.772111C13.1931 0.386055 12.2363 0 10.8935 0C10.4739 0 9.36608 0.0839251 7.97292 0.772111C7.08331 1.29245 5.55588 2.61846 5.38803 5.72369V5.75726C5.27053 6.12653 4.86769 10.071 7.08331 12.4545C8.05684 13.5959 9.29894 14.1498 10.8935 14.1498H11.0446C12.5552 14.1498 13.9316 13.5287 14.8548 12.4545C15.694 11.481 16.6676 9.55068 16.5501 5.89154ZM13.4113 11.3131C12.9077 11.9845 12.0517 12.337 10.8767 12.337C9.70178 12.337 8.84574 11.9845 8.3254 11.2963C7.35187 10.2221 6.94903 8.32537 7.16724 5.97547V5.9419C7.16724 5.90833 7.16724 5.89154 7.16724 5.87476C7.3183 2.60168 9.19823 1.86314 10.7424 1.82957H10.9942C12.0517 1.86314 14.5359 2.31633 14.7205 5.87476V6.04261C14.7205 6.09296 14.7205 6.1601 14.7205 6.24403V6.26081C14.7876 7.11685 14.9051 9.80245 13.4113 11.3131Z" fill="#505050"/>
<path d="M21.787 23.0963C21.9212 22.2235 21.938 20.9646 21.938 20.5954C21.938 18.8665 21.5016 16.6509 19.3867 15.9963C17.2046 15.3584 15.0729 14.066 15.0562 14.0492L15.0226 14.0324C14.8547 13.8646 14.6869 13.7974 14.5023 13.7974C14.2505 13.7974 13.9819 13.9317 13.7301 14.1835C13.4952 14.536 13.6294 15.1906 13.9819 15.4424C14.0491 15.4759 14.1666 15.5263 14.4183 15.6941C15.1401 16.1473 16.8354 17.188 18.8496 17.6748C19.907 18.0273 20.1252 19.0008 20.1252 20.4443V22.1732L20.0077 22.2235C17.2382 23.6167 14.2169 24.3216 11.0278 24.3216C6.22724 24.3216 3.1388 22.8446 2.04777 22.2067L1.94706 22.1396V20.4107C1.94706 18.8329 2.31633 18.0105 3.18915 17.658C5.08586 17.1376 6.69722 16.2145 7.55326 15.7277C7.77147 15.5934 7.9561 15.4927 8.09038 15.4256C8.44287 15.1906 8.57715 14.5024 8.32537 14.1331C8.17431 13.8981 7.83861 13.7471 7.50291 13.7471C7.31827 13.7471 7.15042 13.7974 7.03292 13.8813C7.01614 13.8981 5.05229 15.1738 2.66882 15.8116L2.51775 15.8284C0.872821 16.483 0 18.0776 0 20.4443V20.6121C0 21.72 0.10071 22.6096 0.30213 23.0963C0.352485 23.197 0.402841 23.2642 0.704971 23.4824C0.738541 23.4992 4.69981 26.0001 11.0445 26.0001C16.3318 26.0001 19.8735 24.2209 21.0316 23.6335C21.2331 23.5327 21.3505 23.4656 21.4345 23.4488C21.5855 23.3649 21.7198 23.2306 21.787 23.0963Z" fill="#505050"/>
</g>
<defs>
<clipPath id="clip0">
<rect width="21.938" height="26" fill="white"/>
</clipPath>
</defs>
</svg>
