<svg width="39" height="39" id='VK' viewBox="0 0 39 39" fill="none" xmlns="http://www.w3.org/2000/svg">
<path fill-rule="evenodd" clip-rule="evenodd" d="M19.5 37.8238C29.7173 37.8238 38 29.5805 38 19.4119C38 9.24329 29.7173 1 19.5 1C9.28273 1 1 9.24329 1 19.4119C1 29.5805 9.28273 37.8238 19.5 37.8238Z" stroke="#4C75A3"/>
<path d="M18.5048 25.2481H19.6499C19.6499 25.2481 19.9955 25.2083 20.1792 25.039C20.3412 24.8796 20.3412 24.5709 20.3412 24.5709C20.3412 24.5709 20.3196 23.1468 21.0325 22.9377C21.7347 22.7286 22.642 24.312 23.6034 24.9195C24.3272 25.3776 24.8781 25.278 24.8781 25.278L27.449 25.2481C27.449 25.2481 28.7884 25.1684 28.1511 24.1925C28.0971 24.1128 27.7838 23.4755 26.2391 22.151C24.6296 20.7767 24.8457 20.9958 26.79 18.6156C27.9675 17.1617 28.4428 16.2754 28.2915 15.8969C28.1511 15.5384 27.2869 15.628 27.2869 15.628L24.392 15.648C24.392 15.648 24.1759 15.6181 24.0139 15.7077C23.8627 15.7973 23.7547 15.9965 23.7547 15.9965C23.7547 15.9965 23.301 17.1218 22.6852 18.0779C21.3998 20.0895 20.8813 20.1991 20.6761 20.0796C20.19 19.7908 20.3088 18.9044 20.3088 18.2771C20.3088 16.3252 20.6329 15.5085 19.6823 15.2994C19.3798 15.2297 19.153 15.1799 18.3428 15.1699C17.3058 15.16 16.4416 15.1699 15.9447 15.399C15.6207 15.5484 15.3614 15.877 15.5127 15.8969C15.7071 15.9168 16.1392 16.0065 16.366 16.2953C16.6685 16.6637 16.6577 17.5003 16.6577 17.5003C16.6577 17.5003 16.8305 19.8007 16.258 20.0895C15.8691 20.2887 15.329 19.8904 14.184 18.058C13.6007 17.1218 13.147 16.0861 13.147 16.0861C13.147 16.0861 13.0606 15.8969 12.9094 15.7874C12.7257 15.6579 12.4665 15.6181 12.4665 15.6181L9.72275 15.638C9.72275 15.638 9.31227 15.648 9.16104 15.8173C9.02062 15.9567 9.15024 16.2654 9.15024 16.2654C9.15024 16.2654 11.2999 20.9061 13.7411 23.2464C15.9664 25.3875 18.5048 25.2481 18.5048 25.2481Z" fill="#4C75A3"/>
</svg>
